<svg width="607" height="171" viewBox="0 0 607 171" fill="none" xmlns="http://www.w3.org/2000/svg">
<rect width="607" height="171" rx="30" fill="#62E1E1"/>
<path d="M233.014 113V54.8182H240.06V80.7273H271.082V54.8182H278.128V113H271.082V86.9773H240.06V113H233.014ZM291.324 113V69.3636H298.028V113H291.324ZM294.733 62.0909C293.426 62.0909 292.299 61.6458 291.352 60.7557C290.424 59.8655 289.96 58.7955 289.96 57.5455C289.96 56.2955 290.424 55.2254 291.352 54.3352C292.299 53.4451 293.426 53 294.733 53C296.04 53 297.157 53.4451 298.085 54.3352C299.032 55.2254 299.506 56.2955 299.506 57.5455C299.506 58.7955 299.032 59.8655 298.085 60.7557C297.157 61.6458 296.04 62.0909 294.733 62.0909ZM317.013 86.75V113H310.308V69.3636H316.786V76.1818H317.354C318.376 73.9659 319.929 72.1856 322.013 70.8409C324.096 69.4773 326.786 68.7955 330.081 68.7955C333.036 68.7955 335.621 69.4015 337.837 70.6136C340.053 71.8068 341.776 73.625 343.007 76.0682C344.238 78.4924 344.854 81.5606 344.854 85.2727V113H338.149V85.7273C338.149 82.2992 337.259 79.6288 335.479 77.7159C333.698 75.7841 331.255 74.8182 328.149 74.8182C326.009 74.8182 324.096 75.2822 322.411 76.2102C320.744 77.1383 319.428 78.4924 318.462 80.2727C317.496 82.053 317.013 84.2121 317.013 86.75ZM376.082 69.3636V75.0455H353.469V69.3636H376.082ZM360.06 58.9091H366.764V100.5C366.764 102.394 367.039 103.814 367.588 104.761C368.156 105.689 368.876 106.314 369.747 106.636C370.637 106.939 371.575 107.091 372.56 107.091C373.298 107.091 373.904 107.053 374.378 106.977C374.851 106.883 375.23 106.807 375.514 106.75L376.878 112.773C376.423 112.943 375.789 113.114 374.974 113.284C374.16 113.473 373.128 113.568 371.878 113.568C369.984 113.568 368.128 113.161 366.31 112.347C364.51 111.532 363.014 110.292 361.821 108.625C360.647 106.958 360.06 104.856 360.06 102.318V58.9091Z" fill="white"/>
</svg>
