<svg width="607" height="171" viewBox="0 0 607 171" fill="none" xmlns="http://www.w3.org/2000/svg">
<rect width="607" height="171" rx="30" fill="#62E1E1"/>
<path d="M113.053 113V54.8182H132.712C137.277 54.8182 141.008 55.642 143.906 57.2898C146.822 58.9186 148.981 61.125 150.383 63.9091C151.784 66.6932 152.485 69.7992 152.485 73.2273C152.485 76.6553 151.784 79.7708 150.383 82.5739C149 85.3769 146.86 87.6117 143.962 89.2784C141.065 90.9261 137.353 91.75 132.826 91.75H118.735V85.5H132.599C135.724 85.5 138.233 84.9602 140.127 83.8807C142.021 82.8011 143.394 81.3428 144.246 79.5057C145.118 77.6496 145.553 75.5568 145.553 73.2273C145.553 70.8977 145.118 68.8144 144.246 66.9773C143.394 65.1402 142.012 63.7008 140.099 62.6591C138.186 61.5985 135.648 61.0682 132.485 61.0682H120.099V113H113.053ZM169.63 54.8182V113H162.925V54.8182H169.63ZM194.751 114.023C191.986 114.023 189.476 113.502 187.222 112.46C184.969 111.4 183.179 109.875 181.853 107.886C180.527 105.879 179.864 103.455 179.864 100.614C179.864 98.1136 180.357 96.0871 181.342 94.5341C182.326 92.9621 183.643 91.7311 185.29 90.8409C186.938 89.9508 188.756 89.2879 190.745 88.8523C192.753 88.3977 194.77 88.0379 196.796 87.7727C199.448 87.4318 201.597 87.1761 203.245 87.0057C204.912 86.8163 206.124 86.5038 206.881 86.0682C207.658 85.6326 208.046 84.875 208.046 83.7955V83.5682C208.046 80.7652 207.279 78.5871 205.745 77.0341C204.23 75.4811 201.929 74.7045 198.842 74.7045C195.641 74.7045 193.131 75.4053 191.313 76.8068C189.495 78.2083 188.217 79.7045 187.478 81.2955L181.114 79.0227C182.251 76.3712 183.766 74.3068 185.66 72.8295C187.573 71.3333 189.656 70.2917 191.91 69.7045C194.183 69.0985 196.417 68.7955 198.614 68.7955C200.016 68.7955 201.626 68.9659 203.444 69.3068C205.281 69.6288 207.052 70.3011 208.756 71.3239C210.48 72.3466 211.91 73.8902 213.046 75.9545C214.183 78.0189 214.751 80.7841 214.751 84.25V113H208.046V107.091H207.705C207.251 108.038 206.493 109.051 205.433 110.131C204.372 111.21 202.961 112.129 201.2 112.886C199.438 113.644 197.289 114.023 194.751 114.023ZM195.773 108C198.425 108 200.66 107.479 202.478 106.438C204.315 105.396 205.698 104.051 206.626 102.403C207.573 100.756 208.046 99.0227 208.046 97.2045V91.0682C207.762 91.4091 207.137 91.7216 206.171 92.0057C205.224 92.2708 204.126 92.5076 202.876 92.7159C201.645 92.9053 200.442 93.0758 199.268 93.2273C198.112 93.3598 197.175 93.4735 196.455 93.5682C194.713 93.7955 193.084 94.1648 191.569 94.6761C190.073 95.1686 188.861 95.9167 187.933 96.9205C187.023 97.9053 186.569 99.25 186.569 100.955C186.569 103.284 187.431 105.045 189.154 106.239C190.897 107.413 193.103 108 195.773 108ZM229.744 129.364C228.607 129.364 227.594 129.269 226.704 129.08C225.814 128.909 225.198 128.739 224.857 128.568L226.562 122.659C228.191 123.076 229.63 123.227 230.88 123.114C232.13 123 233.238 122.441 234.204 121.438C235.189 120.453 236.088 118.852 236.903 116.636L238.153 113.227L222.016 69.3636H229.289L241.335 104.136H241.789L253.835 69.3636H261.107L242.585 119.364C241.751 121.617 240.719 123.483 239.488 124.96C238.257 126.456 236.827 127.564 235.198 128.284C233.588 129.004 231.77 129.364 229.744 129.364ZM295.752 113H288.366L309.729 54.8182H317.002L338.366 113H330.979L313.593 64.0227H313.138L295.752 113ZM298.479 90.2727H328.252V96.5227H298.479V90.2727ZM364.133 130.273C360.894 130.273 358.11 129.856 355.781 129.023C353.451 128.208 351.51 127.129 349.957 125.784C348.423 124.458 347.201 123.038 346.292 121.523L351.633 117.773C352.239 118.568 353.006 119.477 353.934 120.5C354.862 121.542 356.131 122.441 357.741 123.199C359.37 123.975 361.5 124.364 364.133 124.364C367.656 124.364 370.563 123.511 372.854 121.807C375.146 120.102 376.292 117.432 376.292 113.795V104.932H375.724C375.231 105.727 374.531 106.712 373.621 107.886C372.731 109.042 371.443 110.074 369.758 110.983C368.091 111.873 365.837 112.318 362.996 112.318C359.474 112.318 356.311 111.485 353.508 109.818C350.724 108.152 348.517 105.727 346.888 102.545C345.279 99.3636 344.474 95.5 344.474 90.9545C344.474 86.4848 345.26 82.5928 346.832 79.2784C348.404 75.9451 350.591 73.3693 353.394 71.5511C356.197 69.714 359.436 68.7955 363.11 68.7955C365.951 68.7955 368.205 69.2689 369.871 70.2159C371.557 71.1439 372.845 72.2045 373.735 73.3977C374.644 74.572 375.345 75.5379 375.837 76.2955H376.519V69.3636H382.996V114.25C382.996 118 382.144 121.049 380.44 123.398C378.754 125.765 376.481 127.498 373.621 128.597C370.781 129.714 367.618 130.273 364.133 130.273ZM363.906 106.295C366.595 106.295 368.868 105.68 370.724 104.449C372.58 103.218 373.991 101.447 374.957 99.1364C375.923 96.8258 376.406 94.0606 376.406 90.8409C376.406 87.697 375.932 84.9223 374.985 82.517C374.038 80.1117 372.637 78.2273 370.781 76.8636C368.924 75.5 366.633 74.8182 363.906 74.8182C361.065 74.8182 358.697 75.5379 356.803 76.9773C354.928 78.4167 353.517 80.3485 352.57 82.7727C351.642 85.197 351.178 87.8864 351.178 90.8409C351.178 93.8712 351.652 96.5511 352.599 98.8807C353.565 101.191 354.985 103.009 356.86 104.335C358.754 105.642 361.103 106.295 363.906 106.295ZM408.11 114.023C405.345 114.023 402.835 113.502 400.582 112.46C398.328 111.4 396.538 109.875 395.212 107.886C393.887 105.879 393.224 103.455 393.224 100.614C393.224 98.1136 393.716 96.0871 394.701 94.5341C395.686 92.9621 397.002 91.7311 398.65 90.8409C400.298 89.9508 402.116 89.2879 404.104 88.8523C406.112 88.3977 408.129 88.0379 410.156 87.7727C412.807 87.4318 414.957 87.1761 416.604 87.0057C418.271 86.8163 419.483 86.5038 420.241 86.0682C421.017 85.6326 421.406 84.875 421.406 83.7955V83.5682C421.406 80.7652 420.638 78.5871 419.104 77.0341C417.589 75.4811 415.288 74.7045 412.201 74.7045C409 74.7045 406.491 75.4053 404.673 76.8068C402.854 78.2083 401.576 79.7045 400.837 81.2955L394.474 79.0227C395.61 76.3712 397.125 74.3068 399.019 72.8295C400.932 71.3333 403.015 70.2917 405.269 69.7045C407.542 69.0985 409.777 68.7955 411.974 68.7955C413.375 68.7955 414.985 68.9659 416.803 69.3068C418.64 69.6288 420.411 70.3011 422.116 71.3239C423.839 72.3466 425.269 73.8902 426.406 75.9545C427.542 78.0189 428.11 80.7841 428.11 84.25V113H421.406V107.091H421.065C420.61 108.038 419.853 109.051 418.792 110.131C417.731 111.21 416.32 112.129 414.559 112.886C412.798 113.644 410.648 114.023 408.11 114.023ZM409.133 108C411.784 108 414.019 107.479 415.837 106.438C417.674 105.396 419.057 104.051 419.985 102.403C420.932 100.756 421.406 99.0227 421.406 97.2045V91.0682C421.121 91.4091 420.496 91.7216 419.531 92.0057C418.584 92.2708 417.485 92.5076 416.235 92.7159C415.004 92.9053 413.801 93.0758 412.627 93.2273C411.472 93.3598 410.534 93.4735 409.815 93.5682C408.072 93.7955 406.443 94.1648 404.928 94.6761C403.432 95.1686 402.22 95.9167 401.292 96.9205C400.383 97.9053 399.928 99.25 399.928 100.955C399.928 103.284 400.79 105.045 402.513 106.239C404.256 107.413 406.462 108 409.133 108ZM440.347 113V69.3636H447.052V113H440.347ZM443.756 62.0909C442.45 62.0909 441.323 61.6458 440.376 60.7557C439.448 59.8655 438.984 58.7955 438.984 57.5455C438.984 56.2955 439.448 55.2254 440.376 54.3352C441.323 53.4451 442.45 53 443.756 53C445.063 53 446.181 53.4451 447.109 54.3352C448.056 55.2254 448.529 56.2955 448.529 57.5455C448.529 58.7955 448.056 59.8655 447.109 60.7557C446.181 61.6458 445.063 62.0909 443.756 62.0909ZM466.036 86.75V113H459.332V69.3636H465.809V76.1818H466.377C467.4 73.9659 468.953 72.1856 471.036 70.8409C473.12 69.4773 475.809 68.7955 479.104 68.7955C482.059 68.7955 484.644 69.4015 486.86 70.6136C489.076 71.8068 490.799 73.625 492.031 76.0682C493.262 78.4924 493.877 81.5606 493.877 85.2727V113H487.173V85.7273C487.173 82.2992 486.282 79.6288 484.502 77.7159C482.722 75.7841 480.279 74.8182 477.173 74.8182C475.032 74.8182 473.12 75.2822 471.434 76.2102C469.767 77.1383 468.451 78.4924 467.485 80.2727C466.519 82.053 466.036 84.2121 466.036 86.75Z" fill="white"/>
</svg>
