<svg width="607" height="171" viewBox="0 0 607 171" fill="none" xmlns="http://www.w3.org/2000/svg">
<rect width="607" height="171" rx="30" fill="#62E1E1"/>
<path d="M80.1839 69.3636C79.843 66.4848 78.4605 64.25 76.0362 62.6591C73.612 61.0682 70.6385 60.2727 67.1158 60.2727C64.54 60.2727 62.2862 60.6894 60.3544 61.5227C58.4415 62.3561 56.9453 63.5019 55.8658 64.9602C54.8052 66.4186 54.2749 68.0758 54.2749 69.9318C54.2749 71.4848 54.6442 72.8201 55.3828 73.9375C56.1404 75.036 57.1063 75.9545 58.2805 76.6932C59.4548 77.4129 60.6858 78.0095 61.9737 78.483C63.2616 78.9375 64.4453 79.3068 65.5249 79.5909L71.4339 81.1818C72.9491 81.5795 74.6347 82.1288 76.4908 82.8295C78.3658 83.5303 80.1555 84.4867 81.8601 85.6989C83.5836 86.892 85.004 88.4261 86.1215 90.3011C87.2389 92.1761 87.7976 94.4773 87.7976 97.2045C87.7976 100.348 86.9737 103.189 85.326 105.727C83.6972 108.265 81.3108 110.282 78.1669 111.778C75.0419 113.275 71.2446 114.023 66.7749 114.023C62.6082 114.023 59.0002 113.35 55.951 112.006C52.9207 110.661 50.5343 108.786 48.7919 106.381C47.0684 103.975 46.093 101.182 45.8658 98H53.1385C53.3279 100.197 54.0665 102.015 55.3544 103.455C56.6612 104.875 58.3089 105.936 60.2976 106.636C62.3052 107.318 64.4643 107.659 66.7749 107.659C69.4643 107.659 71.879 107.223 74.0192 106.352C76.1593 105.462 77.8544 104.231 79.1044 102.659C80.3544 101.068 80.9794 99.2121 80.9794 97.0909C80.9794 95.1591 80.4396 93.5871 79.3601 92.375C78.2805 91.1629 76.8601 90.178 75.0987 89.4205C73.3374 88.6629 71.4339 88 69.3885 87.4318L62.2294 85.3864C57.6839 84.0795 54.0855 82.214 51.4339 79.7898C48.7824 77.3655 47.4567 74.1932 47.4567 70.2727C47.4567 67.0151 48.3374 64.1742 50.0987 61.75C51.879 59.3068 54.2654 57.4129 57.2578 56.0682C60.2692 54.7045 63.6309 54.0227 67.343 54.0227C71.093 54.0227 74.4264 54.6951 77.343 56.0398C80.2597 57.3655 82.5703 59.1837 84.2749 61.4943C85.9983 63.8049 86.9074 66.428 87.0021 69.3636H80.1839ZM125.972 95.1591V69.3636H132.677V113H125.972V105.614H125.518C124.495 107.83 122.904 109.714 120.745 111.267C118.586 112.801 115.859 113.568 112.563 113.568C109.836 113.568 107.412 112.972 105.29 111.778C103.169 110.566 101.503 108.748 100.29 106.324C99.0784 103.881 98.4723 100.803 98.4723 97.0909V69.3636H105.177V96.6364C105.177 99.8182 106.067 102.356 107.847 104.25C109.647 106.144 111.938 107.091 114.722 107.091C116.389 107.091 118.084 106.665 119.808 105.812C121.55 104.96 123.008 103.653 124.183 101.892C125.376 100.131 125.972 97.8864 125.972 95.1591ZM145.866 113V54.8182H152.57V76.2955H153.138C153.631 75.5379 154.313 74.572 155.184 73.3977C156.074 72.2045 157.343 71.1439 158.991 70.2159C160.657 69.2689 162.911 68.7955 165.752 68.7955C169.426 68.7955 172.665 69.714 175.468 71.5511C178.271 73.3883 180.459 75.9924 182.031 79.3636C183.603 82.7348 184.388 86.7121 184.388 91.2955C184.388 95.9167 183.603 99.9223 182.031 103.312C180.459 106.684 178.281 109.297 175.496 111.153C172.712 112.991 169.502 113.909 165.866 113.909C163.063 113.909 160.818 113.445 159.133 112.517C157.447 111.57 156.15 110.5 155.241 109.307C154.332 108.095 153.631 107.091 153.138 106.295H152.343V113H145.866ZM152.457 91.1818C152.457 94.4773 152.94 97.3845 153.906 99.9034C154.871 102.403 156.282 104.364 158.138 105.784C159.995 107.186 162.267 107.886 164.957 107.886C167.76 107.886 170.099 107.148 171.974 105.67C173.868 104.174 175.288 102.167 176.235 99.6477C177.201 97.1098 177.684 94.2879 177.684 91.1818C177.684 88.1136 177.21 85.3485 176.263 82.8864C175.335 80.4053 173.924 78.4451 172.031 77.0057C170.156 75.5473 167.798 74.8182 164.957 74.8182C162.229 74.8182 159.938 75.5095 158.082 76.892C156.226 78.2557 154.824 80.1686 153.877 82.6307C152.93 85.0739 152.457 87.9242 152.457 91.1818ZM194.644 113V69.3636H201.121V76.1818H201.69C202.599 73.8523 204.067 72.0436 206.093 70.7557C208.12 69.4489 210.553 68.7955 213.394 68.7955C216.273 68.7955 218.669 69.4489 220.582 70.7557C222.513 72.0436 224.019 73.8523 225.099 76.1818H225.553C226.671 73.928 228.347 72.1383 230.582 70.8125C232.817 69.4678 235.496 68.7955 238.621 68.7955C242.523 68.7955 245.714 70.017 248.195 72.4602C250.676 74.8845 251.917 78.6629 251.917 83.7955V113H245.212V83.7955C245.212 80.5758 244.332 78.2746 242.57 76.892C240.809 75.5095 238.735 74.8182 236.349 74.8182C233.281 74.8182 230.904 75.7462 229.218 77.6023C227.532 79.4394 226.69 81.7689 226.69 84.5909V113H219.871V83.1136C219.871 80.6326 219.067 78.6345 217.457 77.1193C215.847 75.5852 213.773 74.8182 211.235 74.8182C209.493 74.8182 207.864 75.2822 206.349 76.2102C204.853 77.1383 203.64 78.4261 202.712 80.0739C201.803 81.7027 201.349 83.5871 201.349 85.7273V113H194.644ZM264.175 113V69.3636H270.88V113H264.175ZM267.585 62.0909C266.278 62.0909 265.151 61.6458 264.204 60.7557C263.276 59.8655 262.812 58.7955 262.812 57.5455C262.812 56.2955 263.276 55.2254 264.204 54.3352C265.151 53.4451 266.278 53 267.585 53C268.891 53 270.009 53.4451 270.937 54.3352C271.884 55.2254 272.357 56.2955 272.357 57.5455C272.357 58.7955 271.884 59.8655 270.937 60.7557C270.009 61.6458 268.891 62.0909 267.585 62.0909ZM302.137 69.3636V75.0455H279.523V69.3636H302.137ZM286.114 58.9091H292.819V100.5C292.819 102.394 293.094 103.814 293.643 104.761C294.211 105.689 294.931 106.314 295.802 106.636C296.692 106.939 297.629 107.091 298.614 107.091C299.353 107.091 299.959 107.053 300.433 106.977C300.906 106.883 301.285 106.807 301.569 106.75L302.933 112.773C302.478 112.943 301.844 113.114 301.029 113.284C300.215 113.473 299.183 113.568 297.933 113.568C296.039 113.568 294.183 113.161 292.364 112.347C290.565 111.532 289.069 110.292 287.876 108.625C286.701 106.958 286.114 104.856 286.114 102.318V58.9091ZM375.404 73C374.779 71.0871 373.955 69.3731 372.933 67.858C371.929 66.3239 370.726 65.017 369.325 63.9375C367.942 62.858 366.37 62.0341 364.609 61.4659C362.847 60.8977 360.915 60.6136 358.813 60.6136C355.366 60.6136 352.232 61.5038 349.41 63.2841C346.588 65.0644 344.344 67.6875 342.677 71.1534C341.01 74.6193 340.177 78.8712 340.177 83.9091C340.177 88.947 341.02 93.1989 342.705 96.6648C344.391 100.131 346.673 102.754 349.552 104.534C352.431 106.314 355.669 107.205 359.268 107.205C362.601 107.205 365.537 106.494 368.075 105.074C370.631 103.634 372.62 101.608 374.04 98.9943C375.48 96.3617 376.2 93.2652 376.2 89.7045L378.359 90.1591H360.859V83.9091H383.018V90.1591C383.018 94.9508 381.995 99.1174 379.95 102.659C377.923 106.201 375.12 108.947 371.54 110.898C367.98 112.83 363.889 113.795 359.268 113.795C354.116 113.795 349.59 112.583 345.688 110.159C341.806 107.735 338.775 104.288 336.597 99.8182C334.438 95.3485 333.359 90.0455 333.359 83.9091C333.359 79.3068 333.974 75.1686 335.205 71.4943C336.455 67.8011 338.217 64.6572 340.489 62.0625C342.762 59.4678 345.451 57.4792 348.558 56.0966C351.664 54.714 355.082 54.0227 358.813 54.0227C361.881 54.0227 364.741 54.4867 367.393 55.4148C370.063 56.3239 372.44 57.6212 374.523 59.3068C376.626 60.9735 378.378 62.9716 379.779 65.3011C381.181 67.6117 382.147 70.178 382.677 73H375.404ZM421.675 95.1591V69.3636H428.38V113H421.675V105.614H421.221C420.198 107.83 418.607 109.714 416.448 111.267C414.289 112.801 411.562 113.568 408.266 113.568C405.539 113.568 403.115 112.972 400.994 111.778C398.872 110.566 397.206 108.748 395.994 106.324C394.781 103.881 394.175 100.803 394.175 97.0909V69.3636H400.88V96.6364C400.88 99.8182 401.77 102.356 403.55 104.25C405.35 106.144 407.641 107.091 410.425 107.091C412.092 107.091 413.787 106.665 415.511 105.812C417.253 104.96 418.711 103.653 419.886 101.892C421.079 100.131 421.675 97.8864 421.675 95.1591ZM458.955 113.909C454.751 113.909 451.124 112.981 448.075 111.125C445.044 109.25 442.705 106.636 441.058 103.284C439.429 99.9129 438.614 95.9924 438.614 91.5227C438.614 87.053 439.429 83.1136 441.058 79.7045C442.705 76.2765 444.997 73.6061 447.933 71.6932C450.887 69.7614 454.334 68.7955 458.273 68.7955C460.546 68.7955 462.79 69.1742 465.006 69.9318C467.222 70.6894 469.239 71.9205 471.058 73.625C472.876 75.3106 474.325 77.5455 475.404 80.3295C476.484 83.1136 477.023 86.5417 477.023 90.6136V93.4545H443.387V87.6591H470.205C470.205 85.197 469.713 83 468.728 81.0682C467.762 79.1364 466.379 77.6117 464.58 76.4943C462.8 75.3769 460.698 74.8182 458.273 74.8182C455.603 74.8182 453.292 75.4811 451.342 76.8068C449.41 78.1136 447.923 79.8182 446.881 81.9205C445.84 84.0227 445.319 86.2765 445.319 88.6818V92.5455C445.319 95.8409 445.887 98.6345 447.023 100.926C448.179 103.199 449.779 104.932 451.825 106.125C453.87 107.299 456.247 107.886 458.955 107.886C460.717 107.886 462.308 107.64 463.728 107.148C465.167 106.636 466.408 105.879 467.45 104.875C468.491 103.852 469.296 102.583 469.864 101.068L476.342 102.886C475.66 105.083 474.514 107.015 472.904 108.682C471.294 110.33 469.306 111.617 466.938 112.545C464.571 113.455 461.91 113.909 458.955 113.909ZM518.131 79.1364L512.109 80.8409C511.73 79.8371 511.171 78.8617 510.433 77.9148C509.713 76.9489 508.728 76.1534 507.478 75.5284C506.228 74.9034 504.628 74.5909 502.677 74.5909C500.006 74.5909 497.781 75.2064 496.001 76.4375C494.239 77.6496 493.359 79.1932 493.359 81.0682C493.359 82.7348 493.965 84.0511 495.177 85.017C496.389 85.983 498.283 86.7879 500.859 87.4318L507.336 89.0227C511.237 89.9697 514.145 91.4186 516.058 93.3693C517.97 95.3011 518.927 97.7917 518.927 100.841C518.927 103.341 518.207 105.576 516.768 107.545C515.347 109.515 513.359 111.068 510.802 112.205C508.245 113.341 505.272 113.909 501.881 113.909C497.431 113.909 493.747 112.943 490.83 111.011C487.914 109.08 486.067 106.258 485.29 102.545L491.654 100.955C492.26 103.303 493.406 105.064 495.092 106.239C496.796 107.413 499.022 108 501.768 108C504.893 108 507.374 107.337 509.211 106.011C511.067 104.667 511.995 103.057 511.995 101.182C511.995 99.6667 511.465 98.3977 510.404 97.375C509.344 96.3333 507.715 95.5568 505.518 95.0455L498.245 93.3409C494.249 92.3939 491.313 90.9261 489.438 88.9375C487.582 86.9299 486.654 84.4205 486.654 81.4091C486.654 78.947 487.345 76.7689 488.728 74.875C490.129 72.9811 492.033 71.4943 494.438 70.4148C496.862 69.3352 499.609 68.7955 502.677 68.7955C506.995 68.7955 510.385 69.7424 512.847 71.6364C515.328 73.5303 517.09 76.0303 518.131 79.1364ZM559.928 79.1364L553.906 80.8409C553.527 79.8371 552.968 78.8617 552.229 77.9148C551.51 76.9489 550.525 76.1534 549.275 75.5284C548.025 74.9034 546.424 74.5909 544.474 74.5909C541.803 74.5909 539.578 75.2064 537.798 76.4375C536.036 77.6496 535.156 79.1932 535.156 81.0682C535.156 82.7348 535.762 84.0511 536.974 85.017C538.186 85.983 540.08 86.7879 542.656 87.4318L549.133 89.0227C553.034 89.9697 555.942 91.4186 557.854 93.3693C559.767 95.3011 560.724 97.7917 560.724 100.841C560.724 103.341 560.004 105.576 558.565 107.545C557.144 109.515 555.156 111.068 552.599 112.205C550.042 113.341 547.068 113.909 543.678 113.909C539.228 113.909 535.544 112.943 532.627 111.011C529.71 109.08 527.864 106.258 527.087 102.545L533.451 100.955C534.057 103.303 535.203 105.064 536.888 106.239C538.593 107.413 540.818 108 543.565 108C546.69 108 549.171 107.337 551.008 106.011C552.864 104.667 553.792 103.057 553.792 101.182C553.792 99.6667 553.262 98.3977 552.201 97.375C551.14 96.3333 549.512 95.5568 547.315 95.0455L540.042 93.3409C536.046 92.3939 533.11 90.9261 531.235 88.9375C529.379 86.9299 528.451 84.4205 528.451 81.4091C528.451 78.947 529.142 76.7689 530.525 74.875C531.926 72.9811 533.83 71.4943 536.235 70.4148C538.659 69.3352 541.406 68.7955 544.474 68.7955C548.792 68.7955 552.182 69.7424 554.644 71.6364C557.125 73.5303 558.887 76.0303 559.928 79.1364Z" fill="white"/>
</svg>
